<?xml version="1.0" encoding="UTF-8" standalone="no"?>
<svg width="32" height="32" viewBox="0 0 32 32" fill="none" xmlns="http://www.w3.org/2000/svg">
  <!-- Background -->
  <rect width="32" height="32" rx="6" fill="white"/>
  
  <!-- Shield -->
  <path d="M16 5C13 7.5 10 7.5 8 7V18C8 22 16 27 16 27C16 27 24 22 24 18V7C22 7.5 19 7.5 16 5Z" fill="#FFCC00" stroke="#0055A4" stroke-width="1"/>
  
  <!-- Helmet -->
  <path d="M16 10C13.5 10 11 12 11 15C11 16 11.5 17 12 17.5L13 17V19H19V17L20 17.5C20.5 17 21 16 21 15C21 12 18.5 10 16 10Z" fill="#FF6B00" stroke="#0055A4" stroke-width="0.7"/>
  
  <!-- Helmet Shine -->
  <path d="M13 12C14 11 18 11 19 12" stroke="white" stroke-width="0.7" stroke-linecap="round"/>
  
  <!-- S -->
  <path d="M16 22C14 22 13 21 13 20C13 19 14 18 16 18C18 18 19 19 19 20C19 21 18 22 16 22ZM16 18C14 18 13 17 13 16C13 15 14 14 16 14C18 14 19 15 19 16C19 17 18 18 16 18Z" fill="#0055A4" stroke="#0055A4" stroke-width="0.7" stroke-linecap="round"/>
</svg> 