<?xml version="1.0" encoding="UTF-8" standalone="no"?>
<svg width="200" height="200" viewBox="0 0 200 200" fill="none" xmlns="http://www.w3.org/2000/svg">
  <!-- Background Circle -->
  <circle cx="100" cy="100" r="95" fill="white" stroke="#0055A4" stroke-width="2"/>
  
  <!-- Shield Base -->
  <path d="M100 30C80 45 60 45 50 42.5V110C50 140 100 170 100 170C100 170 150 140 150 110V42.5C140 45 120 45 100 30Z" fill="#FFCC00" stroke="#0055A4" stroke-width="2.5"/>
  
  <!-- Safety Helmet -->
  <path d="M100 60C85 60 70 70 70 90C70 95 71 99 72.5 102.5L80 100V107.5H120V100L127.5 102.5C129 99 130 95 130 90C130 70 115 60 100 60Z" fill="#FF6B00" stroke="#0055A4" stroke-width="2.5"/>
  
  <!-- Helmet Strap -->
  <path d="M80 100V115M120 100V115" stroke="#0055A4" stroke-width="2.5" stroke-linecap="round"/>
  <path d="M80 115H120" stroke="#0055A4" stroke-width="2.5" stroke-linecap="round"/>
  
  <!-- Helmet Shine -->
  <path d="M85 75C90 70 110 70 115 75" stroke="white" stroke-width="2.5" stroke-linecap="round"/>
  
  <!-- S in the shield -->
  <path d="M100 135C90 135 85 130 85 125C85 120 90 115 100 115C110 115 115 120 115 125C115 130 110 135 100 135ZM100 115C90 115 85 110 85 105C85 100 90 95 100 95C110 95 115 100 115 105C115 110 110 115 100 115Z" fill="#0055A4" stroke="#0055A4" stroke-width="2.5" stroke-linecap="round" stroke-linejoin="round"/>
</svg> 